<svg width="14" height="18" viewBox="0 0 14 18" fill="none" xmlns="http://www.w3.org/2000/svg">
<g clip-path="url(#clip0_2210_2624)">
<mask id="path-1-outside-1_2210_2624" maskUnits="userSpaceOnUse" x="-0.104953" y="0.00274086" width="13.9242" height="18.6557" fill="black">
<rect fill="white" x="-0.104953" y="0.00274086" width="13.9242" height="18.6557"/>
<path d="M1.81866 9.59851C1.82765 9.42687 1.9004 9.27031 2.0369 9.12882L8.55151 2.15357C8.69622 2.00469 8.84556 1.91668 8.99953 1.88955C9.15351 1.86241 9.28922 1.88517 9.40667 1.95782C9.52823 2.02678 9.60863 2.13465 9.64788 2.28144C9.69123 2.42453 9.66869 2.5935 9.58024 2.78836L7.36155 7.72979L11.1357 7.92759C11.2995 7.93617 11.4314 7.99394 11.5314 8.10088C11.6354 8.20803 11.6831 8.34157 11.6747 8.50151C11.6659 8.66925 11.5932 8.82581 11.4565 8.9712L4.94219 15.9406C4.79728 16.0934 4.64783 16.1833 4.49386 16.2105C4.33988 16.2376 4.20222 16.2147 4.08087 16.1419C3.96321 16.0731 3.88476 15.9654 3.84551 15.8186C3.80626 15.6718 3.82891 15.5009 3.91346 15.3058L6.13214 10.3644L2.35803 10.1666C2.19809 10.1582 2.06606 10.1024 1.96195 9.99914C1.85804 9.89199 1.81028 9.75845 1.81866 9.59851Z"/>
</mask>
<path d="M1.81866 9.59851C1.82765 9.42687 1.9004 9.27031 2.0369 9.12882L8.55151 2.15357C8.69622 2.00469 8.84556 1.91668 8.99953 1.88955C9.15351 1.86241 9.28922 1.88517 9.40667 1.95782C9.52823 2.02678 9.60863 2.13465 9.64788 2.28144C9.69123 2.42453 9.66869 2.5935 9.58024 2.78836L7.36155 7.72979L11.1357 7.92759C11.2995 7.93617 11.4314 7.99394 11.5314 8.10088C11.6354 8.20803 11.6831 8.34157 11.6747 8.50151C11.6659 8.66925 11.5932 8.82581 11.4565 8.9712L4.94219 15.9406C4.79728 16.0934 4.64783 16.1833 4.49386 16.2105C4.33988 16.2376 4.20222 16.2147 4.08087 16.1419C3.96321 16.0731 3.88476 15.9654 3.84551 15.8186C3.80626 15.6718 3.82891 15.5009 3.91346 15.3058L6.13214 10.3644L2.35803 10.1666C2.19809 10.1582 2.06606 10.1024 1.96195 9.99914C1.85804 9.89199 1.81028 9.75845 1.81866 9.59851Z" fill="white"/>
<path d="M1.81866 9.59851C1.82765 9.42687 1.9004 9.27031 2.0369 9.12882L8.55151 2.15357C8.69622 2.00469 8.84556 1.91668 8.99953 1.88955C9.15351 1.86241 9.28922 1.88517 9.40667 1.95782C9.52823 2.02678 9.60863 2.13465 9.64788 2.28144C9.69123 2.42453 9.66869 2.5935 9.58024 2.78836L7.36155 7.72979L11.1357 7.92759C11.2995 7.93617 11.4314 7.99394 11.5314 8.10088C11.6354 8.20803 11.6831 8.34157 11.6747 8.50151C11.6659 8.66925 11.5932 8.82581 11.4565 8.9712L4.94219 15.9406C4.79728 16.0934 4.64783 16.1833 4.49386 16.2105C4.33988 16.2376 4.20222 16.2147 4.08087 16.1419C3.96321 16.0731 3.88476 15.9654 3.84551 15.8186C3.80626 15.6718 3.82891 15.5009 3.91346 15.3058L6.13214 10.3644L2.35803 10.1666C2.19809 10.1582 2.06606 10.1024 1.96195 9.99914C1.85804 9.89199 1.81028 9.75845 1.81866 9.59851Z" fill="url(#paint0_linear_2210_2624)"/>
<path d="M2.0369 9.12882L2.75658 9.82313L2.7622 9.8173L2.76772 9.81139L2.0369 9.12882ZM8.55151 2.15357L7.83442 1.45658L7.82748 1.46373L7.82068 1.47101L8.55151 2.15357ZM9.40667 1.95782L8.88061 2.80827L8.89675 2.81825L8.91326 2.82762L9.40667 1.95782ZM9.64788 2.28144L8.68181 2.53974L8.68607 2.55564L8.69084 2.57139L9.64788 2.28144ZM9.58024 2.78836L8.66964 2.37504L8.66798 2.37876L9.58024 2.78836ZM7.36155 7.72979L6.44929 7.32019L5.85131 8.65202L7.30922 8.72842L7.36155 7.72979ZM11.5314 8.10088L10.8011 8.78391L10.8073 8.79054L10.8136 8.79706L11.5314 8.10088ZM11.4565 8.9712L10.728 8.28619L10.7259 8.28835L11.4565 8.9712ZM4.94219 15.9406L5.66775 16.6288L5.67275 16.6235L4.94219 15.9406ZM4.08087 16.1419L4.59563 15.2845L4.58539 15.2785L4.08087 16.1419ZM3.91346 15.3058L3.00111 14.8962L2.99593 14.9081L3.91346 15.3058ZM6.13214 10.3644L7.04441 10.774L7.64239 9.44215L6.18448 9.36575L6.13214 10.3644ZM1.96195 9.99914L1.24408 10.6953L1.25087 10.7023L1.25781 10.7092L1.96195 9.99914ZM1.81866 9.59851L2.81729 9.65085C2.81506 9.69336 2.80413 9.73654 2.78685 9.77374C2.77041 9.80911 2.75491 9.82486 2.75658 9.82313L2.0369 9.12882L1.31721 8.43452C1.03903 8.72287 0.843436 9.09951 0.820027 9.54618L1.81866 9.59851ZM2.0369 9.12882L2.76772 9.81139L9.28233 2.83613L8.55151 2.15357L7.82068 1.47101L1.30607 8.44626L2.0369 9.12882ZM8.55151 2.15357L9.26859 2.85056C9.29064 2.82787 9.29527 2.82829 9.27975 2.83744C9.26248 2.84761 9.22609 2.86503 9.17309 2.87437L8.99953 1.88955L8.82598 0.904723C8.40675 0.978604 8.07803 1.20595 7.83442 1.45658L8.55151 2.15357ZM8.99953 1.88955L9.17309 2.87437C9.15307 2.8779 9.10995 2.88231 9.05141 2.87249C8.9909 2.86235 8.93176 2.83991 8.88061 2.80827L9.40667 1.95782L9.93274 1.10738C9.57872 0.888393 9.18754 0.841004 8.82598 0.904723L8.99953 1.88955ZM9.40667 1.95782L8.91326 2.82762C8.85828 2.79643 8.8022 2.74956 8.75636 2.68806C8.71161 2.62802 8.69073 2.57308 8.68181 2.53974L9.64788 2.28144L10.6139 2.02314C10.5121 1.64237 10.2763 1.30146 9.90008 1.08803L9.40667 1.95782ZM9.64788 2.28144L8.69084 2.57139C8.63872 2.39937 8.7005 2.30709 8.66965 2.37505L9.58024 2.78836L10.4908 3.20167C10.6369 2.87991 10.7437 2.44968 10.6049 1.99148L9.64788 2.28144ZM9.58024 2.78836L8.66798 2.37876L6.44929 7.32019L7.36155 7.72979L8.27382 8.1394L10.4925 3.19796L9.58024 2.78836ZM7.36155 7.72979L7.30922 8.72842L11.0833 8.92622L11.1357 7.92759L11.188 6.92896L7.41389 6.73117L7.36155 7.72979ZM11.1357 7.92759L11.0833 8.92622C11.0615 8.92507 11.015 8.91905 10.9564 8.89339C10.8958 8.86685 10.8423 8.82797 10.8011 8.78391L11.5314 8.10088L12.2618 7.41785C11.9633 7.0986 11.5764 6.94931 11.188 6.92896L11.1357 7.92759ZM11.5314 8.10088L10.8136 8.79706C10.7715 8.75365 10.7303 8.69281 10.7036 8.61818C10.6775 8.54518 10.6743 8.48437 10.6761 8.44917L11.6747 8.50151L12.6734 8.55384C12.6951 8.13892 12.5621 7.72722 12.2493 7.40471L11.5314 8.10088ZM11.6747 8.50151L10.6761 8.44917C10.6786 8.40171 10.6907 8.35779 10.7067 8.32335C10.7217 8.29104 10.7343 8.2794 10.728 8.28619L11.4565 8.9712L12.185 9.65621C12.4518 9.37247 12.65 9.00049 12.6734 8.55384L11.6747 8.50151ZM11.4565 8.9712L10.7259 8.28835L4.21163 15.2577L4.94219 15.9406L5.67275 16.6235L12.1871 9.65405L11.4565 8.9712ZM4.94219 15.9406L4.21665 15.2524C4.19385 15.2765 4.1892 15.2758 4.2057 15.2659C4.22408 15.2548 4.26314 15.2357 4.3203 15.2257L4.49386 16.2105L4.66741 17.1953C5.09479 17.12 5.42589 16.8837 5.66773 16.6288L4.94219 15.9406ZM4.49386 16.2105L4.3203 15.2257C4.34156 15.2219 4.38344 15.218 4.43895 15.2272C4.49597 15.2367 4.55004 15.2572 4.5956 15.2845L4.08087 16.1419L3.56613 16.9992C3.91616 17.2094 4.30281 17.2596 4.66741 17.1953L4.49386 16.2105ZM4.08087 16.1419L4.58539 15.2785C4.64303 15.3122 4.69839 15.3607 4.74226 15.421C4.78482 15.4794 4.80383 15.5313 4.81158 15.5603L3.84551 15.8186L2.87945 16.0769C2.97822 16.4463 3.20402 16.7877 3.57634 17.0053L4.08087 16.1419ZM3.84551 15.8186L4.81158 15.5603C4.83017 15.6298 4.82802 15.6843 4.8244 15.7117C4.82112 15.7364 4.81732 15.735 4.83098 15.7035L3.91346 15.3058L2.99593 14.9081C2.85688 15.229 2.7626 15.6399 2.87945 16.0769L3.84551 15.8186ZM3.91346 15.3058L4.82572 15.7154L7.04441 10.774L6.13214 10.3644L5.21988 9.95477L3.00119 14.8962L3.91346 15.3058ZM6.13214 10.3644L6.18448 9.36575L2.41036 9.16795L2.35803 10.1666L2.30569 11.1652L6.07981 11.363L6.13214 10.3644ZM2.35803 10.1666L2.41036 9.16795C2.43288 9.16913 2.47567 9.17505 2.52844 9.19736C2.58256 9.22024 2.62976 9.25305 2.66609 9.28908L1.96195 9.99914L1.25781 10.7092C1.55303 11.002 1.92491 11.1453 2.30569 11.1652L2.35803 10.1666ZM1.96195 9.99914L2.67982 9.30296C2.72191 9.34637 2.76308 9.40721 2.78978 9.48185C2.81588 9.55484 2.81913 9.61565 2.81729 9.65085L1.81866 9.59851L0.820027 9.54618C0.798282 9.9611 0.931305 10.3728 1.24408 10.6953L1.96195 9.99914Z" fill="#420701" mask="url(#path-1-outside-1_2210_2624)"/>
</g>
<defs>
<linearGradient id="paint0_linear_2210_2624" x1="13.3483" y1="9.67077" x2="6.4897" y2="5.7072" gradientUnits="userSpaceOnUse">
<stop stop-color="#EEFF00"/>
<stop offset="1" stop-color="#FF6620"/>
</linearGradient>
<clipPath id="clip0_2210_2624">
<rect width="13.7151" height="18" fill="white"/>
</clipPath>
</defs>
</svg>
